<svg xmlns="http://www.w3.org/2000/svg" aria-hidden="true" style="position:absolute;width:0;height:0;overflow:hidden"><defs><symbol id="icon-Arrow-1" viewBox="0 0 32 32"><path stroke-width=".762" d="M16 31.619c8.626 0 15.619-6.993 15.619-15.619S24.626.381 16 .381.381 7.374.381 16 7.374 31.619 16 31.619z"/><path stroke-width="1.524" d="M19.81 17.905 16 14.095l-3.81 3.81"/></symbol><symbol id="icon-arrow-left-right" viewBox="0 0 32 32"><path stroke-width=".471" d="M16 .235C24.707.235 31.765 7.293 31.765 16S24.707 31.765 16 31.765.235 24.707.235 16 7.293.235 16 .235z"/><path stroke-linecap="round" stroke-linejoin="round" stroke-width=".941" d="M10.98 16h10.039M17.255 12.235 21.02 16l-3.765 3.765"/></symbol><symbol id="icon-Services-Urgent-execution" viewBox="0 0 32 32"><path d="M6.667 0h18.667a6.667 6.667 0 0 1 6.667 6.667v18.667a6.667 6.667 0 0 1-6.667 6.667H6.667A6.667 6.667 0 0 1 0 25.334V6.667A6.667 6.667 0 0 1 6.667 0z"/><path stroke-linecap="round" stroke-linejoin="round" stroke-width="1.333" d="M20.108 9.333h-8.217a.558.558 0 0 0-.558.558 6.7 6.7 0 0 0 1.962 4.737l.813.813c.081.081.121.121.15.16a.668.668 0 0 1 0 .797c-.029.039-.069.079-.15.16l-.813.813a6.7 6.7 0 0 0-1.962 4.737c0 .308.25.558.558.558h8.217c.308 0 .558-.25.558-.558a6.7 6.7 0 0 0-1.962-4.737l-.813-.813a1.653 1.653 0 0 1-.15-.16.668.668 0 0 1 0-.797c.029-.039.069-.079.15-.16l.813-.813a6.7 6.7 0 0 0 1.962-4.737.558.558 0 0 0-.558-.558z"/></symbol><symbol id="icon-Favicon-jeff" viewBox="0 0 32 32"><path d="M6.667 0h18.667a6.667 6.667 0 0 1 6.667 6.667v18.667a6.667 6.667 0 0 1-6.667 6.667H6.667A6.667 6.667 0 0 1 0 25.334V6.667A6.667 6.667 0 0 1 6.667 0z"/><path d="m24.48 15.368.083-1.748-1.527.951-.474-.786 1.622-.797-1.622-.797.474-.797 1.527.951-.083-1.748h.935l-.083 1.748 1.528-.951.474.797-1.622.797 1.622.797-.474.786-1.528-.951.083 1.748h-.935zM21.034 12.535v1.004h-3.841v-1.004h3.841zm-2.794 6.412v-7.158c0-.398.093-.728.28-.992.191-.268.438-.467.743-.597a2.46 2.46 0 0 1 .992-.201c.272 0 .503.021.694.063s.331.078.42.109l-.316 1.009a3.68 3.68 0 0 0-.237-.063 1.51 1.51 0 0 0-.353-.034c-.321 0-.552.076-.694.229-.142.149-.213.367-.213.654v6.98h-1.315z"/><path d="M17.455 12.535v1.004h-3.841v-1.004h3.841zm-2.794 6.412v-7.158c0-.398.093-.728.28-.992.191-.268.438-.467.743-.597a2.46 2.46 0 0 1 .992-.201c.272 0 .503.021.694.063s.331.078.42.109l-.317 1.009a3.68 3.68 0 0 0-.237-.063 1.51 1.51 0 0 0-.353-.034c-.321 0-.552.076-.694.229-.142.149-.213.367-.213.654v6.98h-1.315zM10.791 18.947c-.644 0-1.202-.134-1.674-.403s-.835-.648-1.09-1.136c-.252-.492-.377-1.066-.377-1.721 0-.651.124-1.225.371-1.721a2.827 2.827 0 0 1 1.055-1.159c.456-.28.99-.42 1.603-.42.373 0 .735.059 1.085.176s.664.303.943.557c.279.254.499.583.66.988.165.405.248.894.248 1.466v.443h-5.24v-.926h4.58l-.595.307c0-.39-.063-.735-.189-1.034s-.314-.532-.566-.699c-.248-.17-.556-.256-.925-.256s-.686.085-.949.256c-.259.17-.458.396-.595.676s-.206.587-.206.92v.631c0 .436.079.805.236 1.108s.375.534.654.693c.283.159.611.239.984.239.244 0 .464-.034.66-.102.2-.068.373-.17.519-.307s.255-.305.33-.506l1.214.222c-.098.341-.271.64-.519.898s-.56.458-.937.602c-.373.14-.8.21-1.279.21zM5.686 12.483h1.21v6.862c.004.43-.071.793-.224 1.089s-.377.519-.672.668c-.295.154-.657.23-1.087.23h-.246v-1.077h.196c.291 0 .5-.079.627-.236s.192-.384.196-.68v-6.856zm.599-.991c-.213 0-.394-.073-.543-.219s-.224-.321-.224-.524c0-.207.075-.384.224-.53s.33-.219.543-.219c.209 0 .388.073.538.219.153.146.23.323.23.53a.699.699 0 0 1-.23.524.742.742 0 0 1-.538.219z"/></symbol><symbol id="icon-Favicon-j" viewBox="0 0 32 32"><path d="M6.667 0h18.667a6.667 6.667 0 0 1 6.667 6.667v18.667a6.667 6.667 0 0 1-6.667 6.667H6.667A6.667 6.667 0 0 1 0 25.334V6.667A6.667 6.667 0 0 1 6.667 0z"/><path d="M12.432 20.797a3.613 3.613 0 0 1-1.484-.293c-.438-.2-.786-.49-1.042-.872s-.384-.846-.384-1.393v-.189h1.452v.189c0 .265.061.497.182.697.126.2.297.354.514.462.221.104.475.156.762.156.308 0 .571-.065.788-.195s.382-.321.495-.573c.113-.256.169-.569.169-.937v-6.882h1.452v6.882c0 .621-.119 1.152-.358 1.595a2.415 2.415 0 0 1-1.003 1.009c-.434.23-.948.345-1.543.345zm6.101-4.375.091-1.999-1.68 1.087-.521-.898 1.784-.911-1.784-.911.521-.911 1.68 1.087-.091-1.999h1.029l-.091 1.999 1.68-1.087.521.911-1.784.911 1.784.911-.521.898-1.68-1.087.091 1.999h-1.029z"/></symbol><symbol id="icon-Services-Expertise" viewBox="0 0 32 32"><path d="M6.667 0h18.667a6.667 6.667 0 0 1 6.667 6.667v18.667a6.667 6.667 0 0 1-6.667 6.667H6.667A6.667 6.667 0 0 1 0 25.334V6.667A6.667 6.667 0 0 1 6.667 0z"/><path stroke-linecap="round" stroke-linejoin="round" stroke-width="1.333" d="M21.333 22c0-.93 0-1.396-.115-1.774a2.67 2.67 0 0 0-1.778-1.778c-.379-.115-.844-.115-1.774-.115h-3.333c-.93 0-1.396 0-1.774.115a2.67 2.67 0 0 0-1.778 1.778c-.115.379-.115.844-.115 1.774M16 16a3 3 0 1 0 0-6 3 3 0 0 0 0 6z"/></symbol><symbol id="icon-Services-Communication" viewBox="0 0 32 32"><path d="M6.667 0h18.667a6.667 6.667 0 0 1 6.667 6.667v18.667a6.667 6.667 0 0 1-6.667 6.667H6.667A6.667 6.667 0 0 1 0 25.334V6.667A6.667 6.667 0 0 1 6.667 0z"/><path stroke-linecap="round" stroke-linejoin="round" stroke-width="1.333" d="M12.063 15.486a5.398 5.398 0 0 1-.063-.819c0-2.946 2.403-5.333 5.368-5.333s5.368 2.388 5.368 5.333c0 .665-.123 1.302-.347 1.89-.047.122-.07.183-.08.231s-.015.08-.016.129c-.001.049.005.102.019.21l.268 2.18c.029.236.044.354.004.44a.334.334 0 0 1-.171.168c-.087.037-.204.02-.44-.014l-2.123-.311c-.111-.016-.166-.024-.217-.024s-.084.004-.133.014-.113.034-.239.081a5.379 5.379 0 0 1-2.714.279m-3.459 2.727c1.977 0 3.579-1.642 3.579-3.667s-1.602-3.667-3.579-3.667S9.509 16.975 9.509 19c0 .407.065.799.184 1.164.051.155.076.232.084.285.009.055.01.086.007.142a1.563 1.563 0 0 1-.043.234l-.408 1.841 1.997-.273c.109-.015.163-.022.211-.022.05 0 .077.003.126.013.047.009.116.034.255.083a3.5 3.5 0 0 0 1.166.199z"/></symbol><symbol id="icon-Services-Art" viewBox="0 0 32 32"><path d="M6.667 0h18.667a6.667 6.667 0 0 1 6.667 6.667v18.667a6.667 6.667 0 0 1-6.667 6.667H6.667A6.667 6.667 0 0 1 0 25.334V6.667A6.667 6.667 0 0 1 6.667 0z"/><path stroke-linecap="round" stroke-linejoin="round" stroke-width="1.333" d="M16.519 18 14 15.481M9.333 22.667c1.333 0 3.072.228 3.983-.683a2.334 2.334 0 0 0-3.3-3.3c-.911.911 0 2.65-.683 3.983z"/><path stroke-linecap="round" stroke-linejoin="round" stroke-width="1.333" d="M13.333 18.667c-.328-.328-.491-.491-.584-.663a1.332 1.332 0 0 1 .025-1.311c.099-.168.269-.325.609-.64l6.579-6.091a1.47 1.47 0 0 1 2.077 2.077l-6.091 6.579c-.315.34-.472.51-.64.609-.403.238-.9.247-1.311.025-.172-.093-.335-.256-.663-.584z"/></symbol></defs></svg>